# xmcd CD database file
#
# Track frame offsets:
#	150
#	20730
#	35730
#	45515
#	65035
#	78990
#	107357
#	126282
#	147497
#	157845
#	174637
#	184197
#	199335
#	216420
#	231912
#	251645
#
# Disc length: 3374 seconds
#
# Revision: 1
# Processed by: cddbd v1.4PL0 Copyright (c) Steve Scherf et al.
# Submitted via: CDValet v3.40 - Copyright (c) 1996 - 1998 Greg Leichner
#
DISCID=ec0d2c10
DTITLE=Big Daddy Bluegrass Band - Big Daddy Bluegrass Band
DYEAR=1900
DGENRE=
TTITLE0=Water Of Love
TTITLE1=The Great Titanic
TTITLE2=Blackjack
TTITLE3=Roll On Columbia
TTITLE4=Bloody Mary Morning
TTITLE5=Sailing Round The Horn
TTITLE6=Kind Veggie Burritos
TTITLE7=One More Dollar
TTITLE8=Hillbilly Hot Tub
TTITLE9=Amelia Earheart
TTITLE10=Passing Away
TTITLE11=There Is A Time
TTITLE12=Old Shoes And Picture Postcards
TTITLE13=Good Gone Bad
TTITLE14=Wild Hog
TTITLE15=Towzer
EXTD=
EXTT0=
EXTT1=
EXTT2=
EXTT3=
EXTT4=
EXTT5=
EXTT6=
EXTT7=
EXTT8=
EXTT9=
EXTT10=
EXTT11=
EXTT12=
EXTT13=
EXTT14=
EXTT15=
PLAYORDER=
